<svg width="17" height="16" viewBox="0 0 17 16" fill="none" xmlns="http://www.w3.org/2000/svg">
<g clip-path="url(#clip0_424_465)">
<path d="M4.14412 13.6915C4.56795 14.0435 5.19432 14.297 6.07701 14.2288C6.07801 14.3417 6.07899 14.4447 6.07987 14.5367C6.08093 14.6475 6.08183 14.7422 6.08242 14.8189C3.27566 13.8241 1.2666 11.1461 1.2666 8.00019C1.2666 4.00505 4.50554 0.766602 8.49922 0.766602C12.4943 0.766602 15.7333 4.00511 15.7333 8.00019C15.7333 11.1469 13.7243 13.8237 10.9177 14.8193C10.9182 14.7441 10.9188 14.6512 10.9196 14.5426C10.9203 14.4416 10.9211 14.327 10.9219 14.2003C10.9243 13.8303 10.9267 13.3622 10.9267 12.844C10.9267 12.4396 10.859 12.0845 10.7423 11.7855C11.4042 11.6456 12.0757 11.3971 12.6342 10.9295C13.4418 10.2534 13.9327 9.19048 13.9327 7.59571C13.9327 6.73515 13.6603 6.00304 13.1985 5.4097C13.3088 4.9817 13.395 4.22206 13.0254 3.28973L12.9384 3.07008L12.7134 2.99789L12.5606 3.47397C12.7134 2.99789 12.7129 2.99773 12.7124 2.99758L12.7115 2.99726L12.7094 2.99663L12.7052 2.99533L12.696 2.99262C12.6895 2.99077 12.6823 2.98883 12.6745 2.98686C12.6587 2.98292 12.6402 2.97884 12.619 2.975C12.5765 2.9673 12.5234 2.96059 12.4593 2.95764C12.3309 2.95172 12.1614 2.96101 11.9489 3.00579C11.5602 3.08772 11.0316 3.28757 10.3467 3.72647C9.74896 3.58121 9.12261 3.5093 8.5027 3.50616V3.50613L8.49764 3.50616C7.87748 3.5093 7.25073 3.58117 6.6535 3.72645C5.96803 3.2875 5.43898 3.08768 5.04998 3.00576C4.83738 2.961 4.66773 2.95172 4.53927 2.95764C4.47521 2.96059 4.42203 2.96729 4.37955 2.97498C4.35834 2.97882 4.33988 2.98288 4.32414 2.98682C4.31627 2.98879 4.3091 2.99072 4.30261 2.99257L4.2934 2.99527L4.28918 2.99657L4.28717 2.9972L4.28618 2.99751C4.2857 2.99767 4.28522 2.99782 4.43779 3.47397L4.28522 2.99782L4.05985 3.07003L3.97283 3.29011C3.60424 4.22219 3.69046 4.98176 3.80119 5.41016C3.34036 6.00272 3.06569 6.73447 3.06569 7.59571C3.06569 9.18689 3.55604 10.2495 4.36105 10.9272C4.91957 11.3974 5.59125 11.6484 6.25331 11.7902C6.21758 11.8823 6.18651 11.9798 6.16064 12.0822C5.99771 12.1318 5.80388 12.1668 5.60994 12.1495C5.34639 12.126 5.04101 12.005 4.7802 11.56L4.77377 11.5488C4.76837 11.5396 4.76121 11.5276 4.75229 11.5132C4.7345 11.4846 4.70953 11.4463 4.67739 11.4013C4.61356 11.3121 4.51891 11.1932 4.39299 11.0715C4.14457 10.8314 3.74363 10.5517 3.19726 10.5132L3.18287 10.5122L3.16845 10.512L3.16216 11.012C3.16845 10.512 3.16829 10.512 3.16813 10.512L3.1678 10.512L3.16708 10.512L3.16541 10.512L3.1612 10.512L3.14942 10.512C3.14016 10.5121 3.128 10.5123 3.11354 10.5128C3.08507 10.5138 3.04548 10.516 3.00029 10.521C2.92978 10.5288 2.76976 10.5502 2.62482 10.6327C2.54702 10.677 2.42783 10.7648 2.35898 10.9226C2.28332 11.096 2.3049 11.2684 2.36005 11.3998C2.44944 11.6127 2.64731 11.7722 2.82703 11.8949L2.86023 11.9175L2.88688 11.9301C2.89104 11.9325 2.89946 11.9376 2.91149 11.9458C2.9404 11.9656 2.99047 12.0035 3.05249 12.0657C3.17387 12.1874 3.34796 12.4088 3.49748 12.7836C3.49883 12.7876 3.50031 12.7919 3.50195 12.7965C3.50852 12.8151 3.51754 12.8392 3.52938 12.8679C3.55299 12.925 3.58814 13.0012 3.63786 13.0884C3.73695 13.2624 3.89714 13.4863 4.14412 13.6915ZM3.25053 10.9574C3.25057 10.9574 3.25119 10.958 3.25228 10.9594C3.25104 10.9581 3.25049 10.9574 3.25053 10.9574Z" fill="#09090B" stroke="#18181B"/>
</g>
<defs>
<clipPath id="clip0_424_465">
<rect width="16" height="16" fill="white" transform="translate(0.5)"/>
</clipPath>
</defs>
</svg>
