<svg width="17" height="16" viewBox="0 0 17 16" fill="none" xmlns="http://www.w3.org/2000/svg">
<path d="M8.81992 0.5C10.8787 0.5 12.3996 1.22583 13.5732 2.23759L12.7356 3.07522C11.7633 2.28093 10.4839 1.69533 8.81992 1.69533C5.31677 1.69533 2.58659 4.52362 2.58659 8.00867C2.58659 11.4937 5.31677 14.322 8.81992 14.322C11.0622 14.322 12.3737 13.4107 13.2088 12.5756L13.2111 12.5733C13.9297 11.8454 14.3723 10.8355 14.5424 9.53134L14.616 8.96667H14.0466H9.31992V7.78H15.7517C15.781 8.04123 15.7953 8.33409 15.7953 8.64867C15.7953 10.2114 15.3597 12.0952 14.0484 13.4064L14.0483 13.4064L14.0418 13.4132C12.7386 14.7664 11.0759 15.5 8.81992 15.5C4.67806 15.5 1.20459 12.1233 1.20459 8C1.20459 3.87672 4.67806 0.5 8.81992 0.5Z" fill="#09090B" stroke="#09090B"/>
</svg>
